<svg width="32" height="32" viewBox="0 0 32 32" fill="none" xmlns="http://www.w3.org/2000/svg">
<path d="M31.0625 17.0632H29.85H7.49125V6.53045C7.49125 5.14213 8.62069 4.0127 10.0089 4.0127C11.1068 4.0127 12.0422 4.71932 12.3857 5.70151C10.6709 6.0137 9.36619 7.51732 9.36619 9.32101V10.2302C9.36619 10.7479 9.78594 11.1677 10.3037 11.1677H16.6246C17.1423 11.1677 17.5621 10.7479 17.5621 10.2302V9.32101C17.5621 7.4387 16.1413 5.88295 14.316 5.66745C13.9139 3.65713 12.1357 2.1377 10.0089 2.1377C7.58681 2.1377 5.61625 4.10826 5.61625 6.53045V17.0632H2.15H0.9375C0.41975 17.0632 0 17.4829 0 18.0007C0 18.5184 0.41975 18.9382 0.9375 18.9382H1.39062L2.26856 23.0753C2.58856 24.5836 3.42462 25.9486 4.62262 26.919C4.69494 26.9776 4.76844 27.0344 4.84294 27.0898L4.06238 28.4603C3.80613 28.9102 3.96312 29.4826 4.41306 29.7389C4.5595 29.8223 4.71887 29.8619 4.87612 29.8619C5.20206 29.8619 5.51881 29.6916 5.69163 29.3882L6.48969 27.9869C7.24687 28.2724 8.05419 28.4239 8.87125 28.4239H23.1287C23.9458 28.4239 24.7531 28.2724 25.5103 27.9869L26.3084 29.3882C26.4812 29.6917 26.7979 29.8619 27.1239 29.8619C27.2812 29.8619 27.4405 29.8223 27.5869 29.7389C28.0369 29.4826 28.1939 28.9102 27.9376 28.4603L27.1571 27.0898C27.2316 27.0344 27.3051 26.9776 27.3774 26.919C28.5754 25.9486 29.4114 24.5836 29.7314 23.0753L30.6094 18.9382H31.0625C31.5802 18.9382 32 18.5184 32 18.0007C32 17.4829 31.5802 17.0632 31.0625 17.0632ZM15.6868 9.29263H11.2414C11.2566 8.31038 12.0604 7.51595 13.0461 7.51595H13.8821C14.8679 7.51595 15.6716 8.31038 15.6868 9.29263ZM27.8973 22.6861C27.4223 24.9244 25.4168 26.549 23.1287 26.549H8.87125C6.58313 26.549 4.57762 24.9244 4.10262 22.6861L3.30731 18.9382H28.6926L27.8973 22.6861Z" fill="#2B2B2B"/>
<path d="M15.2891 12.4805C15.2883 12.4805 15.2876 12.4805 15.2868 12.4805C14.7691 12.4817 14.3504 12.9024 14.3516 13.4202L14.3553 14.9599C14.3565 15.4768 14.7759 15.8952 15.2927 15.8952H15.295C15.8128 15.8939 16.2314 15.4732 16.2303 14.9554L16.2266 13.4157C16.2254 12.8987 15.8059 12.4805 15.2891 12.4805Z" fill="#2B2B2B"/>
<path d="M11.6403 12.4805C11.1237 12.4805 10.7042 12.8987 10.7029 13.4157L10.6992 14.9554C10.698 15.4732 11.1167 15.894 11.6345 15.8952H11.6368C12.1535 15.8952 12.573 15.4769 12.5742 14.9599L12.5779 13.4202C12.5792 12.9024 12.1604 12.4817 11.6427 12.4805C11.6419 12.4805 11.6412 12.4805 11.6403 12.4805Z" fill="#2B2B2B"/>
</svg>
