<svg width="32" height="32" viewBox="0 0 32 32" fill="none" xmlns="http://www.w3.org/2000/svg">
<path d="M30.4378 16.0418V15.4323C30.4378 14.3096 29.8566 13.3207 28.9797 12.7488V6.10084C28.9797 4.35171 27.5567 2.92871 25.8076 2.92871H6.19244C4.44331 2.92871 3.02025 4.35171 3.02025 6.10084V12.7488C2.14338 13.3206 1.56212 14.3096 1.56212 15.4323V16.0417C0.66425 16.2781 0 17.0969 0 18.068V25.199C0 26.3209 0.886375 27.2395 1.99556 27.2916V28.1356C1.99556 28.6523 2.4145 29.0713 2.93125 29.0713C3.448 29.0713 3.86694 28.6523 3.86694 28.1356V27.2941H28.133V28.1356C28.133 28.6523 28.5519 29.0713 29.0687 29.0713C29.5854 29.0713 30.0044 28.6523 30.0044 28.1356V27.2916C31.1136 27.2394 32 26.3208 32 25.199V18.068C32 17.0968 31.3358 16.2781 30.4378 16.0418ZM4.89169 6.10084C4.89169 5.38359 5.47519 4.80009 6.19244 4.80009H25.8076C26.5248 4.80009 27.1083 5.38359 27.1083 6.10084V12.23H25.8607V10.5808C25.8607 9.4264 24.9216 8.48721 23.7671 8.48721H18.7323C17.5779 8.48721 16.6387 9.4264 16.6387 10.5808V12.23H15.3613V10.5808C15.3613 9.4264 14.4221 8.48721 13.2677 8.48721H8.23287C7.07844 8.48721 6.13931 9.4264 6.13931 10.5808V12.23H4.89169V6.10084ZM23.9893 10.5807V12.0078C23.9893 12.1303 23.8896 12.23 23.7671 12.23H18.7323C18.6098 12.23 18.5101 12.1303 18.5101 12.0078V10.5807C18.5101 10.4582 18.6098 10.3586 18.7323 10.3586H23.7671C23.8896 10.3586 23.9893 10.4582 23.9893 10.5807ZM13.4899 10.5807V12.0078C13.4899 12.1303 13.3902 12.23 13.2677 12.23H8.23287C8.11037 12.23 8.01075 12.1303 8.01075 12.0078V10.5807C8.01075 10.4582 8.11044 10.3586 8.23287 10.3586H13.2677C13.3902 10.3586 13.4899 10.4582 13.4899 10.5807ZM3.43356 15.4323C3.43356 14.6984 4.03063 14.1014 4.7645 14.1014H27.2355C27.9694 14.1014 28.5664 14.6985 28.5664 15.4323V15.9728H3.43356V15.4323ZM30.1286 25.199C30.1286 25.3223 30.0282 25.4227 29.9048 25.4227H2.09519C1.97181 25.4227 1.87137 25.3223 1.87137 25.199V18.068C1.87137 17.9446 1.97175 17.8443 2.09519 17.8443H29.9048C30.0282 17.8443 30.1286 17.9446 30.1286 18.068V25.199H30.1286Z" fill="#2B2B2B"/>
</svg>
