<svg width="32" height="32" viewBox="0 0 32 32" fill="none" xmlns="http://www.w3.org/2000/svg">
<g clip-path="url(#clip0_71_21972)">
<path d="M12.3424 12.7627L9.00905 10.7627C8.69705 10.5747 8.28505 10.6747 8.09436 10.9907C7.90636 11.3067 8.00767 11.716 8.32367 11.9054L11.657 13.9054C11.7637 13.9694 11.8823 14.0001 11.9997 14.0001C12.225 14.0001 12.4464 13.8854 12.5717 13.6774C12.761 13.3614 12.6584 12.9521 12.3424 12.7627Z" fill="#2B2B2B" stroke="#2B2B2B" stroke-width="0.5"/>
<path d="M16.3424 11.4293L13.009 9.42928C12.697 9.23997 12.285 9.34128 12.0944 9.65728C11.9064 9.97328 12.0077 10.3826 12.3237 10.572L15.657 12.572C15.7637 12.636 15.8823 12.6667 15.9997 12.6667C16.225 12.6667 16.4464 12.552 16.5717 12.344C16.761 12.028 16.6584 11.6186 16.3424 11.4293Z" fill="#2B2B2B" stroke="#2B2B2B" stroke-width="0.5"/>
<path d="M20.3424 10.0953L17.009 8.0953C16.697 7.90598 16.2864 8.0073 16.0944 8.3233C15.9064 8.6393 16.0077 9.04861 16.3237 9.23798L19.657 11.238C19.7637 11.302 19.8823 11.3327 19.9997 11.3327C20.225 11.3327 20.4464 11.218 20.5717 11.01C20.761 10.6939 20.6584 10.2846 20.3424 10.0953Z" fill="#2B2B2B" stroke="#2B2B2B" stroke-width="0.5"/>
<path d="M24.3424 8.76268L21.009 6.76268C20.697 6.57468 20.2837 6.67468 20.0944 6.99068C19.9064 7.30668 20.0077 7.71599 20.3237 7.90537L23.657 9.90537C23.7637 9.96937 23.8823 10.0001 23.9997 10.0001C24.225 10.0001 24.4464 9.88537 24.5717 9.67737C24.761 9.36137 24.6584 8.95206 24.3424 8.76268Z" fill="#2B2B2B" stroke="#2B2B2B" stroke-width="0.5"/>
<path d="M31.9839 9.93666C31.9772 9.87266 31.9639 9.81135 31.9399 9.75266C31.9266 9.71935 31.9119 9.68997 31.8932 9.65935C31.8612 9.60604 31.8212 9.56204 31.7746 9.51935C31.7559 9.50204 31.7479 9.47804 31.7266 9.46335C31.7172 9.45666 31.7039 9.45666 31.6946 9.45004C31.6826 9.44204 31.6759 9.43004 31.6626 9.42204L22.3292 4.08866C22.1679 3.99666 21.9759 3.97398 21.7999 4.03135L0.466625 10.698C0.437312 10.706 0.414625 10.7273 0.386625 10.7407C0.369312 10.7487 0.349312 10.746 0.333312 10.7554C0.32 10.7634 0.313313 10.7793 0.3 10.7887C0.224 10.8393 0.162687 10.902 0.114687 10.9753C0.106687 10.9887 0.0946875 10.9967 0.0866875 11.01C0.036 11.102 0.0106875 11.2034 0.0066875 11.31C0.0066875 11.318 0 11.3247 0 11.3327V21.9994C0 22.2381 0.128 22.4594 0.336 22.5781L9.66931 27.9114C9.772 27.9701 9.88531 27.9994 10 27.9994C10.0653 27.9994 10.1333 27.9901 10.1973 27.9687L31.5306 21.302C31.8093 21.2154 31.9999 20.958 31.9999 20.666V9.99935C31.9999 9.97797 31.9866 9.95935 31.9839 9.93666ZM9.33325 26.1833L1.33325 21.6127V12.482L9.33325 17.0527V26.1833ZM10.0786 15.9434L2.32525 11.5127L21.9199 5.38866L29.6732 9.81935L10.0786 15.9434ZM30.6666 20.1754L10.6666 26.426V17.1554L30.6666 10.906V20.1754Z" fill="#2B2B2B" stroke="#2B2B2B" stroke-width="0.5"/>
</g>
<defs>
<clipPath id="clip0_71_21972">
<rect width="32" height="32" fill="white"/>
</clipPath>
</defs>
</svg>
