<svg width="32" height="32" viewBox="0 0 32 32" fill="none" xmlns="http://www.w3.org/2000/svg">
<g clip-path="url(#clip0_71_21979)">
<path d="M29.4241 0.00292969H2.56957C1.15253 0.00292969 0 1.15546 0 2.5725V29.4334C0 30.8441 1.15253 31.9966 2.56957 31.9966H29.4304C30.8475 31.9966 32 30.8441 32 29.4271V2.5725C31.9937 1.15546 30.8412 0.00292969 29.4241 0.00292969ZM15.1088 30.2206H2.56957C2.13501 30.2206 1.78233 29.8679 1.78233 29.4334V2.5725C1.78233 2.13794 2.13501 1.78526 2.56957 1.78526H15.1088V30.2206ZM29.4304 30.2143H16.8849V1.77896H29.4241C29.8587 1.77896 30.2114 2.13164 30.2114 2.56621V29.4271H30.2177C30.2177 29.8616 29.865 30.2143 29.4304 30.2143Z" fill="#2B2B2B"/>
<path d="M11.8852 16.686C11.5388 16.3396 10.9783 16.3396 10.6256 16.686L9.33455 17.9771V11.8743C9.33455 11.3831 8.93777 10.9863 8.44653 10.9863C7.95529 10.9863 7.55852 11.3831 7.55852 11.8743V17.9771L6.26743 16.6923C5.92104 16.3459 5.36052 16.3459 5.00784 16.6923C4.66145 17.0387 4.66145 17.5992 5.00784 17.9519L7.81673 20.7545C7.99308 20.9308 8.2198 21.0127 8.44653 21.0127C8.67326 21.0127 8.89999 20.9245 9.07633 20.7545L11.8852 17.9456C12.2316 17.5992 12.2316 17.0387 11.8852 16.686Z" fill="#2B2B2B"/>
<path d="M26.9868 14.0534L24.1779 11.2445C24.0015 11.0682 23.7748 10.9863 23.5481 10.9863C23.3214 10.9863 23.0946 11.0745 22.9183 11.2445L20.1094 14.0534C19.763 14.3998 19.763 14.9603 20.1094 15.313C20.4558 15.6594 21.0163 15.6594 21.369 15.313L22.6601 14.022V20.1247C22.6601 20.6159 23.0569 21.0127 23.5481 21.0127C24.0393 21.0127 24.4361 20.6159 24.4361 20.1247V14.022L25.7272 15.313C26.0736 15.6594 26.6341 15.6594 26.9868 15.313C27.3332 14.9666 27.3332 14.4061 26.9868 14.0534Z" fill="#2B2B2B"/>
</g>
<defs>
<clipPath id="clip0_71_21979">
<rect width="32" height="32" fill="white"/>
</clipPath>
</defs>
</svg>
