<svg width="32" height="32" viewBox="0 0 32 32" fill="none" xmlns="http://www.w3.org/2000/svg">
<g clip-path="url(#clip0_71_21966)">
<path fill-rule="evenodd" clip-rule="evenodd" d="M6.58819 32.0004C7.10796 32.0004 7.52933 31.5791 7.52933 31.0593V28.2358H12.7058C13.2256 28.2358 13.6469 27.8144 13.6469 27.2946V24.4711H18.8234C19.3431 24.4711 19.7645 24.0498 19.7645 23.53V20.7065H24.941C25.4607 20.7065 25.8821 20.2851 25.8821 19.7654V16.9419H31.0585C31.5784 16.9419 31.9997 16.5205 31.9997 16.0007C31.9997 15.4809 31.5783 15.0596 31.0585 15.0596H24.9411C24.4213 15.0596 23.9999 15.4809 23.9999 16.0007V18.8242H18.8235C18.3037 18.8242 17.8823 19.2456 17.8823 19.7654V22.5889H12.7059C12.1861 22.5889 11.7647 23.0102 11.7647 23.53V26.3535H6.58829C6.06852 26.3535 5.64715 26.7749 5.64715 27.2946V30.1181H0.941147C0.421378 30.1181 0 30.5395 0 31.0593C0 31.5791 0.421378 32.0004 0.941147 32.0004H6.58819Z" fill="#2B2B2B"/>
<path fill-rule="evenodd" clip-rule="evenodd" d="M14.5883 11.6912V22.5883C14.5883 23.1081 15.0096 23.5294 15.5294 23.5294C16.0492 23.5294 16.4706 23.1081 16.4706 22.5883V10.5558L27.294 4.02737V15.0589C27.294 15.5787 27.7154 16.0001 28.2352 16.0001C28.755 16.0001 29.1763 15.5787 29.1763 15.0589V2.89201L31.0742 1.74726C31.5193 1.47879 31.6625 0.900304 31.394 0.455207C31.1255 0.0101104 30.547 -0.133095 30.1019 0.135422L0.455207 18.0177C0.0101104 18.2862 -0.133095 18.8646 0.135422 19.3097C0.403886 19.7548 0.982375 19.898 1.42747 19.6295L2.35314 19.0712V30.1176C2.35314 30.6374 2.77452 31.0588 3.29429 31.0588C3.81406 31.0588 4.23543 30.6374 4.23543 30.1176V17.9358L14.5883 11.6912Z" fill="#2B2B2B"/>
</g>
<defs>
<clipPath id="clip0_71_21966">
<rect width="32" height="32" fill="white"/>
</clipPath>
</defs>
</svg>
