<svg width="32" height="32" viewBox="0 0 32 32" fill="none" xmlns="http://www.w3.org/2000/svg">
<path fill-rule="evenodd" clip-rule="evenodd" d="M16 3C8.82533 3 3 8.82533 3 16C3 23.1747 8.82533 29 16 29C23.1747 29 29 23.1747 29 16C29 8.82533 23.1747 3 16 3ZM16 5C22.0707 5 27 9.92933 27 16C27 22.0707 22.0707 27 16 27C9.92933 27 5 22.0707 5 16C5 9.92933 9.92933 5 16 5Z" fill="#2B2B2B"/>
<path fill-rule="evenodd" clip-rule="evenodd" d="M13.666 18.3337H17.3327C18.482 18.3337 19.5847 17.8777 20.3967 17.0643C21.21 16.2523 21.666 15.1497 21.666 14.0003C21.666 12.851 21.21 11.7483 20.3967 10.9363C19.5847 10.123 18.482 9.66699 17.3327 9.66699C15.1367 9.66699 12.666 9.66699 12.666 9.66699C12.114 9.66699 11.666 10.115 11.666 10.667V21.3337C11.666 21.8857 12.114 22.3337 12.666 22.3337C13.218 22.3337 13.666 21.8857 13.666 21.3337V18.3337ZM13.666 16.3337H17.3327C17.9513 16.3337 18.5447 16.0883 18.982 15.6497C19.4207 15.2123 19.666 14.619 19.666 14.0003C19.666 13.3817 19.4207 12.7883 18.982 12.351C18.5447 11.9123 17.9513 11.667 17.3327 11.667H13.666V16.3337Z" fill="#2B2B2B"/>
</svg>
