<svg width="32" height="32" viewBox="0 0 32 32" fill="none" xmlns="http://www.w3.org/2000/svg">
<path d="M28.0695 3.93262H3.93086C1.91166 3.93582 0.276457 5.57208 0.275391 7.59128V21.1827C0.276457 23.2019 1.91166 24.8382 3.93086 24.8403H12.7917L9.60019 26.5331C8.65406 26.9726 9.31219 28.4201 10.2679 27.987C10.3223 27.9454 15.9341 24.9907 16.0002 24.947L21.6461 27.9475C21.7613 28.0094 21.8893 28.0414 22.0205 28.0414C22.8365 28.0745 23.1351 26.8905 22.4002 26.5331L19.2087 24.8403H28.0695C30.0877 24.8382 31.7229 23.202 31.725 21.1838V7.59128C31.7239 5.57208 30.0887 3.93582 28.0695 3.93262ZM30.125 21.1817C30.125 22.3177 29.2055 23.2382 28.0695 23.2393H3.93086C2.79592 23.2382 1.87646 22.3177 1.87539 21.1827V7.59128C1.87539 6.45528 2.79486 5.53475 3.93086 5.53368H28.0695C29.2045 5.53475 30.1239 6.45528 30.125 7.59022V21.1817Z" fill="#2B2B2B"/>
<path d="M14.59 10.6924H8.56758C8.12598 10.6924 7.76758 11.0508 7.76758 11.4924C7.76758 11.934 8.12598 12.2924 8.56758 12.2924H10.7788V17.2801C10.7788 17.7217 11.1372 18.0801 11.5788 18.0801C12.0204 18.0801 12.3788 17.7217 12.3788 17.2801V12.2924H14.59C15.6364 12.2881 15.6364 10.6977 14.59 10.6924Z" fill="#2B2B2B"/>
<path d="M23.7839 10.7728C23.3871 10.5786 22.9082 10.744 22.714 11.1408L20.6106 15.4522L18.5082 11.1386C18.0442 10.2 16.6106 10.8976 17.0671 11.8426L19.8916 17.6304C20.1668 18.2117 21.0532 18.216 21.3295 17.6304L24.1519 11.8426C24.346 11.4458 24.1807 10.9669 23.7839 10.7728Z" fill="#2B2B2B"/>
</svg>
