<svg width="32" height="33" viewBox="0 0 32 33" fill="none" xmlns="http://www.w3.org/2000/svg">
<path d="M14.6669 17.9811C14.9594 17.9811 15.2034 17.8789 15.3989 17.6744C15.5945 17.47 15.6922 17.23 15.6922 16.9544C15.6922 16.662 15.5945 16.418 15.3989 16.2224C15.2034 16.0269 14.9594 15.9291 14.6669 15.9291C14.3914 15.9291 14.1514 16.0269 13.9469 16.2224C13.7425 16.418 13.6402 16.662 13.6402 16.9544C13.6402 17.23 13.7425 17.47 13.9469 17.6744C14.1514 17.8789 14.3914 17.9811 14.6669 17.9811ZM9.33358 27.6211V26.2878L18.6669 25.3651V7.76776L10.1549 6.95443V5.62109L20.0002 6.58509V26.5398L9.33358 27.6211ZM5.94824 27.6211V26.2878H8.00024V5.62109H24.0002V26.2878H26.0522V27.6211H5.94824ZM9.33358 26.2878H22.6669V6.95443H9.33358V26.2878Z" fill="black"/>
</svg>
