<svg width="32" height="32" viewBox="0 0 32 32" fill="none" xmlns="http://www.w3.org/2000/svg">
<path d="M28.6448 13.369C21.9321 7.00749 11.5967 6.67266 4.50358 12.3656C4.11012 12.6814 3.7265 13.0159 3.35388 13.369C2.95302 13.7489 2.32008 13.7319 1.94018 13.331C1.56028 12.9302 1.57728 12.2972 1.97815 11.9173C2.3906 11.5265 2.81555 11.156 3.25166 10.8059C11.1181 4.49229 22.576 4.86236 30.0205 11.9173C30.4213 12.2972 30.4384 12.9302 30.0585 13.331C29.6787 13.7319 29.0456 13.7489 28.6448 13.369Z" fill="#2B2B2B"/>
<path d="M5.95892 16.4919C11.5041 10.9467 20.4946 10.9467 26.0398 16.4919C26.4303 16.8824 26.4303 17.5156 26.0398 17.9061C25.6492 18.2967 25.0162 18.2967 24.6256 17.9061C19.8615 13.142 12.1373 13.142 7.37313 17.9061C6.9826 18.2967 6.34944 18.2967 5.95892 17.9061C5.56838 17.5156 5.56838 16.8824 5.95892 16.4919Z" fill="#2B2B2B"/>
<path d="M9.95892 20.835C13.295 17.499 18.7038 17.499 22.0398 20.835C22.4303 21.2255 22.4303 21.8587 22.0398 22.2493C21.6492 22.6398 21.0162 22.6398 20.6256 22.2493C18.0706 19.6942 13.9282 19.6942 11.3731 22.2493C10.9826 22.6398 10.3494 22.6398 9.95892 22.2493C9.56838 21.8587 9.56838 21.2255 9.95892 20.835Z" fill="#2B2B2B"/>
<path d="M15.9987 26.6663C16.9191 26.6663 17.6654 25.9201 17.6654 24.9997C17.6654 24.0791 16.9191 23.333 15.9987 23.333C15.0782 23.333 14.332 24.0791 14.332 24.9997C14.332 25.9201 15.0782 26.6663 15.9987 26.6663Z" fill="#2B2B2B"/>
</svg>
