<svg width="64" height="64" viewBox="0 0 64 64" fill="none" xmlns="http://www.w3.org/2000/svg">
<path fill-rule="evenodd" clip-rule="evenodd" d="M16.1604 1.15395C15.931 1.40725 15.9121 1.70572 15.8772 5.60791L15.8398 9.79023H8.57506C1.44256 9.79023 1.30519 9.79501 1.02789 10.0535L0.745289 10.3167V18.4807C0.745289 27.5689 0.711723 27.2188 1.58237 27.2188C1.89867 27.2188 2.09064 27.1259 2.28506 26.8786C2.54881 26.5433 2.55269 26.4302 2.55269 19.068V11.5976H9.20133H15.85V13.986V16.3743H11.8033C8.04692 16.3743 7.74134 16.3913 7.54304 16.6105C7.35817 16.8147 7.32938 17.2207 7.32938 19.6243C7.32938 22.2835 7.341 22.4125 7.60087 22.648C7.85365 22.8769 8.14981 22.8965 11.8612 22.9315L15.85 22.969V25.2823V27.5955L11.8612 27.633C8.14981 27.668 7.85365 27.6876 7.60087 27.9165C7.34074 28.1521 7.32938 28.2803 7.32938 30.9753C7.32938 33.7357 7.33467 33.792 7.61637 33.9892C7.86088 34.1605 8.48934 34.1902 11.8767 34.1902H15.85V36.5785V38.9669H11.8479C8.01787 38.9669 7.83467 38.978 7.58758 39.2251C7.34539 39.4673 7.32951 39.6539 7.33131 42.2266C7.33248 43.7356 7.37598 45.0339 7.42814 45.112C7.69254 45.5079 8.13793 45.551 11.9685 45.551H15.85V47.9393V50.3277H11.8033C8.04692 50.3277 7.74134 50.3446 7.54304 50.5638C7.35817 50.768 7.32938 51.1741 7.32938 53.5776C7.32938 56.1047 7.35068 56.3746 7.5655 56.569C7.77451 56.7582 8.26238 56.7827 11.8258 56.7827H15.85V59.171V61.5594H9.20133H2.55269V55.935C2.55269 49.5218 2.55862 49.5598 1.55952 49.555C0.729926 49.5511 0.745289 49.4206 0.745289 56.4887C0.745289 62.6783 0.752261 62.8574 1.00349 63.1086C1.26027 63.3654 1.43378 63.3668 31.9874 63.3668C62.5411 63.3668 62.7146 63.3654 62.9714 63.1086C63.2275 62.8525 63.2296 62.6783 63.2296 41.0419V19.2333L62.8894 18.9658C62.5545 18.7023 62.4379 18.6981 55.3431 18.6981H48.137L48.0987 14.0549C48.0649 9.95561 48.0356 9.38705 47.8485 9.20012C47.6338 8.98568 17.2928 0.882324 16.7042 0.882324C16.5404 0.882324 16.2957 1.00458 16.1604 1.15395ZM32.2986 6.78156L46.359 10.5002L46.2739 17.3426C46.227 21.1059 46.1887 32.5941 46.1885 42.8721L46.1884 61.5594H31.9874H17.7865V38.0843C17.7865 25.173 17.7479 11.9763 17.7006 8.75795L17.6146 2.90661L17.9265 2.98472C18.098 3.02771 24.5655 4.73622 32.2986 6.78156ZM22.1055 15.1421L21.7886 15.4589V18.3754V21.2919L22.1055 21.6087L22.4223 21.9256H25.3156C28.0471 21.9256 28.2278 21.9107 28.5489 21.658L28.889 21.3905V18.366C28.889 15.5136 28.8743 15.3268 28.6308 15.0833C28.3876 14.8401 28.2006 14.8251 25.3975 14.8251H22.4223L22.1055 15.1421ZM35.344 15.0833C35.1006 15.3268 35.0858 15.5136 35.0858 18.366V21.3905L35.426 21.658C35.747 21.9105 35.9281 21.9256 38.6392 21.9256C41.2746 21.9256 41.5375 21.9052 41.817 21.6791C42.1192 21.4345 42.1222 21.4068 42.1608 18.4525L42.1997 15.4724L41.8762 15.1488L41.5526 14.8251H38.5773C35.7743 14.8251 35.5873 14.8401 35.344 15.0833ZM27.0816 18.3754V20.1182H25.3388H23.596V18.3754V16.6325H25.3388H27.0816V18.3754ZM40.3789 18.3754V20.1182H38.6361H36.8932V18.3754V16.6325H38.6361H40.3789V18.3754ZM15.85 19.6686V21.1553L12.4611 21.121L9.07223 21.0865L9.03569 19.6341L8.99915 18.1817H12.4246H15.85V19.6686ZM61.4222 41.0325V61.5594H54.7736H48.1249V41.0325V20.5055H54.7736H61.4222V41.0325ZM50.7715 24.791C50.6294 24.8716 50.4705 25.0006 50.4184 25.0776C50.3662 25.1547 50.3227 26.3271 50.3215 27.6829C50.3197 29.9087 50.3426 30.1688 50.5557 30.3617C50.7647 30.5508 51.2512 30.5754 54.796 30.5754C58.5112 30.5754 58.8155 30.5583 59.0138 30.3392C59.1969 30.1369 59.2275 29.7507 59.2275 27.6376V25.1719L58.8873 24.9044C58.5606 24.6473 58.3987 24.6369 54.7884 24.6406C52.2309 24.6433 50.9472 24.6914 50.7715 24.791ZM22.0496 26.2762C21.7855 26.612 21.7768 26.7328 21.8142 29.564C21.8488 32.1805 21.8784 32.5284 22.0834 32.7334C22.2884 32.9384 22.6364 32.968 25.2528 33.0026C28.084 33.04 28.2048 33.0314 28.5406 32.7672L28.889 32.4931V29.4686C28.889 26.6162 28.8743 26.4294 28.6308 26.186C28.3874 25.9425 28.2006 25.9278 25.3482 25.9278H22.3237L22.0496 26.2762ZM35.344 26.186C35.1006 26.4294 35.0858 26.6162 35.0858 29.4686V32.4931L35.4343 32.7672C35.7701 33.0314 35.8909 33.04 38.7221 33.0026C41.3385 32.968 41.6864 32.9384 41.8915 32.7334C42.0965 32.5284 42.126 32.1805 42.1606 29.564C42.1981 26.7328 42.1894 26.612 41.9253 26.2762L41.6512 25.9278H38.6267C35.7743 25.9278 35.5875 25.9425 35.344 26.186ZM57.4201 27.6732V28.9023L54.7413 28.8674L52.0625 28.8325L52.0244 27.8111C52.0035 27.2493 52.0161 26.712 52.0526 26.6169C52.1051 26.4804 52.6748 26.4442 54.7695 26.4442H57.4201V27.6732ZM27.0816 29.478V31.2209H25.3388H23.596V29.478V27.7352H25.3388H27.0816V29.478ZM40.3789 29.478V31.2209H38.6361H36.8932V29.478V27.7352H38.6361H40.3789V29.478ZM15.85 30.8981V32.3828H12.4288H9.00768V30.9842C9.00768 30.2149 9.04641 29.5468 9.09379 29.4996C9.14104 29.4522 10.6806 29.4135 12.5149 29.4135H15.85V30.8981ZM1.00349 31.9955C0.772142 32.2268 0.745289 32.4257 0.745289 33.9095C0.745289 35.4733 0.761943 35.5808 1.04403 35.846C1.41248 36.192 1.78403 36.2031 2.18333 35.8802C2.46955 35.6487 2.49072 35.5349 2.53087 34.0128C2.5727 32.4237 2.56715 32.3855 2.2462 32.0645C1.85284 31.6712 1.35541 31.6435 1.00349 31.9955ZM50.5333 33.9099C50.3502 34.1122 50.3199 34.495 50.3215 36.5887C50.3227 37.9321 50.3662 39.0953 50.4184 39.1734C50.6816 39.5676 51.1298 39.6124 54.8122 39.6124C58.3953 39.6124 58.561 39.6015 58.8873 39.3447L59.2275 39.0772V36.5891C59.2275 34.3428 59.2045 34.0803 58.9914 33.8874C58.7824 33.6983 58.2959 33.6738 54.7511 33.6738C51.0359 33.6738 50.7316 33.6908 50.5333 33.9099ZM57.4201 36.5811V37.8103L54.7413 37.7753L52.0625 37.7404L52.0244 36.719C52.0035 36.1573 52.0161 35.6199 52.0526 35.5248C52.1051 35.3883 52.6748 35.3521 54.7695 35.3521H57.4201V36.5811ZM22.0562 37.3705C21.8044 37.6905 21.7886 37.874 21.7886 40.4629C21.7886 42.2822 21.8395 43.3268 21.939 43.545C22.1777 44.069 22.7392 44.1535 25.6807 44.1078C28.0866 44.0703 28.3726 44.0424 28.6177 43.8204C28.8786 43.584 28.889 43.4589 28.889 40.5894C28.889 38.0965 28.8559 37.5568 28.688 37.3174C28.49 37.0344 28.4436 37.0304 25.4054 37.0304H22.3237L22.0562 37.3705ZM35.2868 37.3174C35.119 37.5568 35.0858 38.0965 35.0858 40.5894C35.0858 43.4589 35.0963 43.584 35.3572 43.8204C35.6022 44.0424 35.8883 44.0703 38.2942 44.1078C41.2356 44.1535 41.7972 44.069 42.0359 43.545C42.1353 43.3268 42.1863 42.2822 42.1863 40.4629C42.1863 37.874 42.1704 37.6905 41.9187 37.3705L41.6512 37.0304H38.5695C35.5312 37.0304 35.4849 37.0344 35.2868 37.3174ZM27.0816 40.5161V42.3235H25.3388H23.596V40.6022C23.596 39.6554 23.6347 38.842 23.6821 38.7948C23.7293 38.7474 24.5136 38.7087 25.4249 38.7087H27.0816V40.5161ZM40.3503 40.5483L40.3862 42.3235H38.6397H36.8932V40.5123V38.7012L38.6038 38.7372L40.3144 38.7732L40.3503 40.5483ZM0.946298 40.9322C0.790216 41.155 0.745289 41.5824 0.745289 42.8461C0.745289 44.3799 0.762459 44.4893 1.04403 44.7539C1.41248 45.0999 1.78403 45.111 2.18333 44.788C2.46503 44.5601 2.49149 44.4322 2.53203 43.1004C2.57993 41.5298 2.52816 41.1555 2.22051 40.8479C1.91209 40.5394 1.18771 40.5873 0.946298 40.9322ZM15.85 42.2589V43.7436H12.4288H9.00768V42.2589V40.7743H12.4288H15.85V42.2589ZM50.5333 42.8178C50.3501 43.0202 50.3196 43.407 50.3196 45.5289C50.3196 47.8318 50.3376 48.0218 50.5778 48.2621C50.8244 48.5087 51.0081 48.5203 54.653 48.5203C58.4182 48.5203 58.8648 48.4765 59.1287 48.0813C59.1809 48.0032 59.2244 46.83 59.2256 45.4742C59.2274 43.2483 59.2045 42.9882 58.9914 42.7953C58.7824 42.6062 58.2959 42.5817 54.7511 42.5817C51.0359 42.5817 50.7316 42.5987 50.5333 42.8178ZM57.4201 45.551V46.7129H54.709H51.9979V45.551V44.3891H54.709H57.4201V45.551ZM22.4204 48.1442C21.8516 48.3589 21.7886 48.7104 21.7886 51.6719C21.7886 54.2607 21.8044 54.4443 22.0562 54.7642L22.3237 55.1044H25.4054C28.4436 55.1044 28.49 55.1004 28.688 54.8174C28.8559 54.5779 28.889 54.0383 28.889 51.5454C28.889 48.6757 28.8786 48.5507 28.6175 48.3144C28.3703 48.0902 28.0977 48.0661 25.5514 48.0427C23.964 48.0283 22.6116 48.072 22.4204 48.1442ZM35.7313 48.0954C35.0938 48.3299 35.0858 48.3727 35.0858 51.5454C35.0858 54.0383 35.119 54.5779 35.2868 54.8174C35.4849 55.1004 35.5312 55.1044 38.5695 55.1044H41.6512L41.9187 54.7642C42.1704 54.4443 42.1863 54.2607 42.1863 51.6719C42.1863 48.6604 42.1277 48.357 41.5038 48.1394C41.1061 48.0008 36.0926 47.9626 35.7313 48.0954ZM27.0816 51.6224V53.4336L25.3711 53.3976L23.6605 53.3615L23.6246 51.5864L23.5887 49.8113H25.3352H27.0816V51.6224ZM40.3503 51.5864L40.3144 53.3615L38.6038 53.3976L36.8932 53.4336V51.6224V49.8113H38.6397H40.3862L40.3503 51.5864ZM50.6066 51.6906C50.3265 51.8868 50.3196 51.9521 50.3196 54.4589C50.3196 56.9656 50.3265 57.0309 50.6066 57.2272C50.8509 57.3984 51.4734 57.4282 54.8023 57.4282C58.539 57.4282 58.7225 57.4168 58.9693 57.17C59.2094 56.9299 59.2275 56.7397 59.2275 54.4589C59.2275 52.1781 59.2094 51.9879 58.9693 51.7478C58.7225 51.5009 58.539 51.4896 54.8023 51.4896C51.4734 51.4896 50.8509 51.5194 50.6066 51.6906ZM15.85 53.6219V55.1086L12.4611 55.0743L9.07223 55.0398L9.03569 53.5875L8.99915 52.1351H12.4246H15.85V53.6219ZM57.4201 54.4589V55.6208H54.709H51.9979V54.4589V53.297H54.709H57.4201V54.4589Z" fill="#F70000"/>
</svg>
