<svg width="63" height="64" viewBox="0 0 63 64" fill="none" xmlns="http://www.w3.org/2000/svg">
<path fill-rule="evenodd" clip-rule="evenodd" d="M51.8591 1.01392C50.4919 1.4006 49.2015 2.5377 48.7794 3.72757C48.6569 4.0732 48.4967 4.38028 48.4236 4.40998C39.3803 8.08836 28.6271 12.5449 28.1909 12.7949C26.7761 13.6063 25.5599 14.9448 24.6817 16.6569C24.42 17.1672 23.7999 18.7419 23.3037 20.1564L22.4016 22.7281L21.9463 22.7308C21.6958 22.7322 21.1924 22.8725 20.8276 23.0426C19.6114 23.6096 19.3419 24.2139 18.1014 29.1529L17.0967 33.1533H10.0071C4.82098 33.1533 2.77366 33.1959 2.38195 33.3117C1.66733 33.5232 0.589616 34.6024 0.37847 35.3181C0.157697 36.0664 0.157697 43.7895 0.37847 44.5379C0.589616 45.2535 1.66733 46.3328 2.38195 46.5442C2.68754 46.6346 3.67874 46.7026 4.69115 46.7026H6.46487V47.81C6.46487 48.7909 6.43807 48.9174 6.22992 48.9174C5.75819 48.9174 4.37059 49.4729 3.60576 49.968C2.46599 50.7057 1.58394 51.6918 0.990961 52.891C-0.958915 56.8349 1.05237 61.5808 5.28464 63.0224L6.13963 63.3136L23.2472 63.3502C42.2439 63.3908 41.3291 63.4287 43.1199 62.5289C44.6973 61.7361 46.0727 60.1144 46.6871 58.3225C47.0803 57.1761 47.1085 55.0804 46.7454 53.9984C45.6687 50.7901 42.9033 48.7871 39.5503 48.7871H38.7286V47.7758V46.7643L39.4024 46.604C40.1557 46.4249 40.7225 46.0747 41.1871 45.5016C41.7999 44.7455 41.8391 44.4249 41.8452 40.122L41.8509 36.0818L39.571 30.3756C38.317 27.2372 37.1516 24.4483 36.9812 24.1779C36.5869 23.5524 35.9968 23.0546 35.426 22.866L34.9789 22.7181L35.432 21.3632C35.936 19.8561 36.3814 19.147 37.1952 18.5566C37.496 18.3384 39.9815 16.7439 42.7183 15.0135C47.9635 11.697 48.1229 11.5674 47.847 10.8407C47.6817 10.4053 47.141 10.0462 46.7618 10.1201C46.601 10.1515 44.1276 11.6541 41.2655 13.4592C34.5799 17.6758 34.3976 17.8529 33.266 21.2325L32.7862 22.6656L28.6832 22.7L24.5802 22.7344L25.3882 20.4852C25.8326 19.2482 26.3023 18.0308 26.4317 17.78C27.1632 16.364 28.3561 15.0384 29.3617 14.5238C29.9839 14.2055 48.3102 6.70607 48.4659 6.70607C48.5345 6.70607 48.6477 6.86723 48.7175 7.06435C48.9687 7.77282 57.1855 30.4871 57.2617 30.6838C57.3133 30.817 55.7778 32.9705 52.7176 37.0568C47.7436 43.6986 47.7706 43.6531 48.4247 44.3082L48.7537 44.6377L52.8154 44.5871C56.6441 44.5394 56.9234 44.5195 57.6866 44.2408C59.8336 43.4568 61.5303 41.7544 62.2809 39.6313C62.5112 38.9798 62.5803 38.4322 62.6324 36.8434L62.6974 34.8663L62.3625 34.5309C61.9593 34.1272 61.3917 34.0923 60.9569 34.4443C60.6655 34.6803 60.6461 34.7929 60.5786 36.6456C60.5085 38.5738 60.5015 38.6103 60.0236 39.5786C59.2938 41.0576 58.0743 42.0404 56.5246 42.3982C56.2175 42.4692 54.8973 42.5287 53.5908 42.5305L51.2154 42.5336L55.1207 37.3223L59.0261 32.1111H60.5268C61.9468 32.1111 62.0448 32.0939 62.3469 31.7912C62.5225 31.6153 62.6663 31.3569 62.6663 31.2165C62.6663 30.5636 57.5634 3.87817 57.3472 3.39978C56.6817 1.92876 55.1804 0.960117 53.4535 0.88768C52.8942 0.86423 52.1917 0.91986 51.8591 1.01392ZM54.1817 3.13022C54.808 3.39222 55.341 3.90918 55.5062 4.41506C55.6263 4.78233 60.3245 29.6426 60.3245 29.9103C60.3245 29.9743 60.0757 30.0258 59.7716 30.0247L59.2187 30.023L54.8867 18.0062C52.504 11.397 50.5235 5.86628 50.4858 5.71554C50.3657 5.23779 50.6971 4.35123 51.1943 3.81981C51.9704 2.9903 53.1798 2.71111 54.1817 3.13022ZM52.578 5.33225C51.9326 5.97845 52.3899 7.09692 53.2994 7.09692C53.8342 7.09692 54.3401 6.59025 54.3401 6.05466C54.3401 5.51907 53.8342 5.01241 53.2994 5.01241C53.0459 5.01241 52.7792 5.13057 52.578 5.33225ZM35.0673 25.121C35.2252 25.2894 36.3476 27.9117 37.5618 30.9485L39.7694 36.4703V40.2244V43.9786L39.45 44.2983L39.1308 44.6181H21.0356H2.94045L2.62119 44.2983L2.30181 43.9786V39.928V35.8774L2.62119 35.5577L2.94045 35.2378H10.6076C17.7261 35.2378 18.295 35.2214 18.5569 35.009C18.7839 34.825 19.0423 33.9654 19.8787 30.612C20.4504 28.3195 20.9741 26.2316 21.0424 25.9723C21.1107 25.7129 21.2877 25.3464 21.4358 25.158L21.7049 24.8153H28.2426H34.7804L35.0673 25.121ZM23.5177 27.1278C23.3028 27.3034 23.0287 28.1441 22.3229 30.791C21.081 35.4489 20.9627 35.2378 24.8145 35.2378H27.2802V36.9595V38.6813L28.4751 40.4854C29.1324 41.4778 29.7726 42.3446 29.8976 42.4117C30.0228 42.4788 31.6832 42.5336 33.5872 42.5336H37.0492L37.3685 42.2138C37.6844 41.8976 37.6879 41.8681 37.6879 39.5004V37.1068L35.8859 32.8176C34.8948 30.4584 33.9543 28.2281 33.7957 27.8613C33.6176 27.4494 33.3839 27.1378 33.1847 27.047C32.9646 26.9465 31.4214 26.8998 28.3293 26.8998C24.2053 26.8998 23.7713 26.9204 23.5177 27.1278ZM27.2802 31.0688V33.1533H25.589C24.6588 33.1533 23.8981 33.1094 23.8986 33.0556C23.8991 33.0018 24.1333 32.0899 24.419 31.0291C24.7047 29.9683 24.9385 29.0742 24.9385 29.0423C24.9385 29.0103 25.4654 28.9843 26.1093 28.9843H27.2802V31.0688ZM33.8175 33.2527L35.6063 37.5183V38.9837V40.4491H33.2818H30.9572L30.1595 39.2375L29.3617 38.026V33.5051V28.9843L30.6952 28.9857L32.0287 28.9872L33.8175 33.2527ZM4.70272 37.6422C4.3918 37.9534 4.38334 38.0143 4.38334 39.928C4.38334 41.8417 4.3918 41.9025 4.70272 42.2138C4.90398 42.4154 5.17068 42.5336 5.42411 42.5336C5.67753 42.5336 5.94423 42.4154 6.14549 42.2138C6.45642 41.9025 6.46487 41.8417 6.46487 39.928C6.46487 38.0143 6.45642 37.9534 6.14549 37.6422C5.94423 37.4405 5.67753 37.3223 5.42411 37.3223C5.17068 37.3223 4.90398 37.4405 4.70272 37.6422ZM8.86579 37.6422C8.55486 37.9534 8.5464 38.0143 8.5464 39.928C8.5464 41.8417 8.55486 41.9025 8.86579 42.2138C9.06705 42.4154 9.33375 42.5336 9.58717 42.5336C9.8406 42.5336 10.1073 42.4154 10.3086 42.2138C10.6195 41.9025 10.6279 41.8417 10.6279 39.928C10.6279 38.0143 10.6195 37.9534 10.3086 37.6422C10.1073 37.4405 9.8406 37.3223 9.58717 37.3223C9.33375 37.3223 9.06705 37.4405 8.86579 37.6422ZM13.0289 37.6422C12.7183 37.953 12.7095 38.0156 12.7095 39.9076C12.7095 41.6227 12.7386 41.8895 12.9557 42.1579C13.1435 42.39 13.3326 42.4626 13.7502 42.4626C14.1678 42.4626 14.357 42.39 14.5447 42.1579C14.7619 41.8895 14.791 41.6227 14.791 39.9076C14.791 38.0156 14.7822 37.953 14.4716 37.6422C14.2704 37.4405 14.0037 37.3223 13.7502 37.3223C13.4968 37.3223 13.2301 37.4405 13.0289 37.6422ZM36.6471 47.7449V48.7871H33.8442C31.0415 48.7871 31.0411 48.7871 30.7219 49.107C30.3342 49.4951 30.3049 50.0707 30.651 50.4989L30.8995 50.8065L35.9524 50.8761C41.5841 50.9537 41.5935 50.9552 42.8607 51.9143C44.2647 52.9769 44.9091 54.3106 44.9065 56.1481C44.9051 57.1907 44.8595 57.417 44.4949 58.1909C43.9247 59.4008 43.1869 60.1561 42.0018 60.7425L41.0188 61.2291H23.6375H6.2562L5.265 60.7384C2.64331 59.441 1.57899 56.3879 2.83585 53.7707C3.44158 52.509 4.93859 51.3357 6.36197 51.007C6.70477 50.9278 10.926 50.8767 17.3012 50.8748L27.6823 50.8717L28.0016 50.5518C28.203 50.3503 28.321 50.0832 28.321 49.8294C28.321 49.5756 28.203 49.3085 28.0016 49.107L27.6823 48.7871H18.1143H8.5464V47.7449V46.7026H22.5968H36.6471V47.7449ZM8.5464 53.1264C8.29597 53.2055 7.7964 53.566 7.43617 53.9274C6.51678 54.8502 6.26283 55.8238 6.62307 57.0449C6.83422 57.7606 7.91193 58.8398 8.62654 59.0513C9.84632 59.4122 10.8188 59.1577 11.7382 58.237C13.0544 56.919 13.0544 55.2469 11.7382 53.9289C10.8227 53.0122 9.75721 52.7443 8.5464 53.1264ZM17.9133 53.1264C17.2748 53.328 16.1858 54.4573 15.99 55.1209C15.6296 56.3425 15.8837 57.3163 16.8031 58.237C18.0273 59.463 19.6428 59.5453 20.9242 58.4469C22.3727 57.2053 22.45 55.2757 21.1051 53.9289C20.1896 53.0122 19.1241 52.7443 17.9133 53.1264ZM27.2802 53.1264C26.6417 53.328 25.5527 54.4573 25.3569 55.1209C24.9958 56.3444 25.3739 57.6096 26.3508 58.4469C27.9285 59.7992 30.2364 59.2593 31.1344 57.3279C31.5287 56.4799 31.5287 55.686 31.1344 54.838C30.4404 53.3454 28.8393 52.6344 27.2802 53.1264ZM36.6471 53.1264C36.0086 53.328 34.9196 54.4573 34.7238 55.1209C34.3634 56.3425 34.6175 57.3163 35.5369 58.237C36.2106 58.9117 36.8696 59.2097 37.6879 59.2097C39.2999 59.2097 40.8102 57.6973 40.8102 56.0829C40.8102 55.2635 40.5126 54.6036 39.8389 53.9289C38.9234 53.0122 37.8579 52.7443 36.6471 53.1264ZM10.3086 55.3605C10.954 56.0067 10.4967 57.1252 9.58717 57.1252C9.05235 57.1252 8.5464 56.6185 8.5464 56.0829C8.5464 55.5473 9.05235 55.0407 9.58717 55.0407C9.8406 55.0407 10.1073 55.1588 10.3086 55.3605ZM19.6755 55.3605C20.3209 56.0067 19.8636 57.1252 18.9541 57.1252C18.4192 57.1252 17.9133 56.6185 17.9133 56.0829C17.9133 55.5473 18.4192 55.0407 18.9541 55.0407C19.2075 55.0407 19.4742 55.1588 19.6755 55.3605ZM29.0423 55.3605C29.6878 56.0067 29.2305 57.1252 28.321 57.1252C27.7861 57.1252 27.2802 56.6185 27.2802 56.0829C27.2802 55.5473 27.7861 55.0407 28.321 55.0407C28.5744 55.0407 28.8411 55.1588 29.0423 55.3605ZM38.4093 55.3605C38.6106 55.5621 38.7286 55.8291 38.7286 56.0829C38.7286 56.3367 38.6106 56.6038 38.4093 56.8053C38.208 57.007 37.9413 57.1252 37.6879 57.1252C37.4344 57.1252 37.1677 57.007 36.9665 56.8053C36.7651 56.6038 36.6471 56.3367 36.6471 56.0829C36.6471 55.8291 36.7651 55.5621 36.9665 55.3605C37.1677 55.1588 37.4344 55.0407 37.6879 55.0407C37.9413 55.0407 38.208 55.1588 38.4093 55.3605Z" fill="#F70000"/>
</svg>
