<svg width="50" height="51" viewBox="0 0 50 51" fill="none" xmlns="http://www.w3.org/2000/svg">
<path opacity="0.5" d="M37.4311 14.1625L33.6186 10.35C30.3978 7.1313 28.7894 5.52088 26.6999 4.92296C24.6103 4.32296 22.3915 4.83546 17.9561 5.86046L15.3978 6.45005C11.6644 7.31046 9.79778 7.74171 8.51861 9.0188C7.23944 10.2959 6.81236 12.1667 5.94986 15.898L5.35819 18.4563C4.33528 22.8938 3.82278 25.1105 4.42069 27.2C5.02069 29.2896 6.63111 30.898 9.84986 34.1167L13.6624 37.9292C19.2665 43.5355 22.0665 46.3334 25.5457 46.3334C29.0269 46.3334 31.8269 43.5334 37.429 37.9313C43.0332 32.3271 45.8332 29.5271 45.8332 26.0459C45.8332 22.5667 43.0332 19.7646 37.4311 14.1625Z" fill="#F70000"/>
<path d="M23.2226 30.3502C21.8205 28.9502 21.833 26.9377 22.6705 25.344C22.4626 25.0438 22.3665 24.6802 22.3988 24.3165C22.431 23.9528 22.5897 23.6118 22.8471 23.3529C23.1046 23.094 23.4446 22.9334 23.8081 22.899C24.1716 22.8646 24.5357 22.9587 24.8371 23.1648C25.5455 22.7898 26.3226 22.5898 27.0976 22.5981C27.512 22.602 27.9079 22.7703 28.1981 23.0661C28.4884 23.3619 28.6493 23.7608 28.6455 24.1752C28.6416 24.5896 28.4733 24.9855 28.1775 25.2758C27.8818 25.5661 27.4828 25.727 27.0684 25.7231C26.586 25.741 26.1301 25.9483 25.7996 26.3002C24.9934 27.1065 25.2059 27.9148 25.4309 28.1419C25.6601 28.369 26.4663 28.5794 27.2726 27.7731C28.9059 26.1398 31.7267 25.5981 33.5351 27.4044C34.9371 28.8065 34.9246 30.819 34.0851 32.4127C34.2916 32.713 34.3867 33.076 34.3538 33.439C34.321 33.802 34.1623 34.1421 33.9052 34.4004C33.6481 34.6587 33.3088 34.8191 32.946 34.8536C32.5832 34.8882 32.2197 34.7949 31.9184 34.5898C30.9835 35.1028 29.8991 35.2737 28.8517 35.0731C28.6506 35.0318 28.4597 34.9513 28.2897 34.8362C28.1197 34.7211 27.9741 34.5736 27.8611 34.4022C27.7481 34.2308 27.67 34.0388 27.6312 33.8372C27.5925 33.6356 27.5938 33.4284 27.6351 33.2273C27.6764 33.0262 27.7569 32.8352 27.872 32.6653C27.9871 32.4953 28.1346 32.3497 28.306 32.2367C28.4774 32.1237 28.6694 32.0456 28.871 32.0068C29.0726 31.968 29.2798 31.9693 29.4809 32.0106C29.8496 32.0877 30.4455 31.9669 30.9559 31.4565C31.7642 30.6481 31.5517 29.8419 31.3246 29.6148C31.0976 29.3877 30.2913 29.1773 29.483 29.9836C27.8496 31.6169 25.0288 32.1586 23.2226 30.3502ZM20.8767 21.944C21.2747 21.5596 21.5921 21.0998 21.8105 20.5915C22.0289 20.0831 22.1438 19.5364 22.1486 18.9831C22.1534 18.4299 22.048 17.8812 21.8385 17.3692C21.629 16.8571 21.3196 16.3919 20.9284 16.0007C20.5372 15.6094 20.0719 15.3001 19.5599 15.0906C19.0478 14.881 18.4991 14.7756 17.9459 14.7804C17.3926 14.7852 16.8459 14.9002 16.3375 15.1186C15.8292 15.3369 15.3694 15.6543 14.9851 16.0523C14.2261 16.8382 13.8061 17.8907 13.8156 18.9831C13.8251 20.0756 14.2633 21.1207 15.0358 21.8932C15.8084 22.6658 16.8534 23.104 17.9459 23.1135C19.0384 23.1229 20.0909 22.703 20.8767 21.944Z" fill="#F70000"/>
</svg>
