<svg width="50" height="51" viewBox="0 0 50 51" fill="none" xmlns="http://www.w3.org/2000/svg">
<path d="M13.9997 35.1667C14.5301 35.012 15.1003 35.0743 15.5847 35.34C16.0692 35.6057 16.4283 36.0529 16.583 36.5833C16.7377 37.1138 16.6754 37.6839 16.4097 38.1684C16.144 38.6529 15.6968 39.012 15.1663 39.1667C14.1247 39.4708 13.3747 39.7917 12.8934 40.0833C13.3893 40.3812 14.1726 40.7146 15.2601 41.025C17.6663 41.7125 21.1101 42.1667 24.9997 42.1667C28.8893 42.1667 32.333 41.7125 34.7393 41.025C35.8288 40.7146 36.6101 40.3812 37.1059 40.0833C36.6268 39.7917 35.8768 39.4708 34.8351 39.1667C34.313 39.0051 33.8753 38.6449 33.6163 38.1637C33.3573 37.6825 33.2978 37.1187 33.4506 36.594C33.6033 36.0693 33.9562 35.6256 34.433 35.3586C34.9098 35.0916 35.4725 35.0227 35.9997 35.1667C37.3913 35.5729 38.6663 36.0938 39.6455 36.7625C40.5518 37.3854 41.6663 38.4708 41.6663 40.0833C41.6663 41.7146 40.5247 42.8083 39.6038 43.4312C38.608 44.1021 37.3059 44.625 35.883 45.0312C33.0122 45.8542 29.1663 46.3333 24.9997 46.3333C20.833 46.3333 16.9872 45.8542 14.1163 45.0312C12.6934 44.625 11.3913 44.1021 10.3955 43.4312C9.47467 42.8062 8.33301 41.7146 8.33301 40.0833C8.33301 38.4708 9.44759 37.3854 10.3538 36.7625C11.333 36.0938 12.608 35.5729 13.9997 35.1667ZM24.9997 16.125C21.7913 16.125 19.7872 19.5979 21.3913 22.375C22.1351 23.6646 23.5101 24.4583 24.9997 24.4583C28.208 24.4583 30.2122 20.9854 28.608 18.2083C28.2423 17.5749 27.7163 17.049 27.0829 16.6833C26.4496 16.3176 25.7311 16.125 24.9997 16.125Z" fill="#F70000"/>
<path opacity="0.3" d="M25 4.66699C29.144 4.66699 33.1183 6.31319 36.0485 9.24345C38.9788 12.1737 40.625 16.148 40.625 20.292C40.625 25.642 37.7083 29.992 34.6875 33.0837C33.4867 34.3002 32.1962 35.4249 30.8271 36.4482C29.5896 37.3774 26.7604 39.1191 26.7604 39.1191C26.2238 39.4241 25.6172 39.5844 25 39.5844C24.3828 39.5844 23.7762 39.4241 23.2396 39.1191C21.8355 38.3049 20.4779 37.4133 19.1729 36.4482C17.8038 35.4249 16.5133 34.3002 15.3125 33.0837C12.2917 29.992 9.375 25.642 9.375 20.292C9.375 16.148 11.0212 12.1737 13.9515 9.24345C16.8817 6.31319 20.856 4.66699 25 4.66699Z" fill="#F70000"/>
</svg>
