<svg width="64" height="64" viewBox="0 0 64 64" fill="none" xmlns="http://www.w3.org/2000/svg">
<path fill-rule="evenodd" clip-rule="evenodd" d="M29.9009 0.98821C25.462 1.4557 21.2633 3.46942 18.0703 6.66225C14.2676 10.4647 12.2596 15.3367 12.2596 20.7608C12.2596 25.6015 13.7865 30.453 17.0251 35.9032C17.5032 36.7074 19.0748 39.0747 19.3082 39.342C19.4007 39.448 19.4766 39.5698 19.4766 39.6125C19.4766 39.6554 17.3901 39.706 14.8398 39.7251C10.8007 39.7553 10.178 39.7847 10.0094 39.9534C9.71508 40.2479 3.59926 55.1409 3.59926 55.5633C3.59926 56.2577 4.4305 56.6714 4.98376 56.2522C5.107 56.1587 5.41941 55.5697 5.67785 54.9432L6.14769 53.8042L9.27272 53.7716L12.3979 53.739L12.205 54.199C12.099 54.452 11.3721 56.2116 10.5897 58.1091L9.16707 61.5591H6.06476C3.63211 61.5591 2.97553 61.5261 3.02291 61.4064C3.05613 61.3225 3.29014 60.739 3.54296 60.1098C3.90875 59.1999 3.97983 58.9008 3.89104 58.6481C3.73153 58.1947 3.21906 57.933 2.78317 58.0826C2.39051 58.2173 2.13842 58.6793 1.21339 60.9591C0.563883 62.5597 0.555089 62.9281 1.15867 63.2343C1.40062 63.357 7.65836 63.3823 32.0976 63.359L62.7334 63.3299L62.9668 63.0416C63.0953 62.8831 63.2003 62.6475 63.2003 62.5183C63.2003 62.1843 54.0966 40.1913 53.8606 39.9551C53.6899 39.7842 53.0846 39.7554 49.0286 39.7251C46.4783 39.706 44.3918 39.6554 44.3918 39.6125C44.3918 39.5698 44.4676 39.448 44.5602 39.342C44.7936 39.0747 46.3652 36.7074 46.8432 35.9032C50.0818 30.453 51.6087 25.6015 51.6087 20.7608C51.6087 15.3367 49.6008 10.4647 45.798 6.66225C41.5981 2.46262 35.743 0.372823 29.9009 0.98821ZM33.6616 2.82265C39.4749 3.40995 44.5014 6.68375 47.4292 11.7895C49.7439 15.826 50.3726 20.5073 49.2585 25.4101C47.961 31.1208 44.4821 37.178 38.9382 43.3798C36.947 45.607 32.2716 50.0794 31.9342 50.0794C31.5092 50.0794 25.6603 44.3197 23.687 41.9581C18.1348 35.313 15.0667 29.2773 14.2301 23.3545C14.0301 21.9378 14.0508 19.3413 14.2733 17.9587C15.674 9.2546 22.9192 2.91827 31.7075 2.71115C32.0866 2.70223 32.966 2.75243 33.6616 2.82265ZM30.9094 12.3455C29.5073 12.5164 27.8592 13.1655 27.1535 13.8245C26.7165 14.2328 26.6899 14.7571 27.0872 15.1304C27.4813 15.5006 27.7573 15.4665 28.8464 14.9126C30.0254 14.3133 30.7282 14.147 32.0563 14.1535C33.3513 14.1597 34.4465 14.4835 35.4582 15.1591C39.0556 17.5613 39.5483 22.4056 36.5048 25.449C33.954 27.9995 29.9143 27.9995 27.3636 25.449C25.4109 23.4964 24.8815 20.9932 25.8427 18.2587L26.2459 17.1115L25.9941 16.7727C25.6823 16.3532 25.0609 16.2552 24.7124 16.5704C24.4205 16.8346 24.0589 17.6354 23.7867 18.6208C23.6449 19.1343 23.5826 19.8194 23.586 20.8305C23.5903 22.0754 23.6394 22.443 23.9122 23.2729C24.3644 24.6477 25.009 25.6876 26.077 26.7654C27.6105 28.3124 29.733 29.1917 31.9342 29.1917C35.5678 29.1917 38.8303 26.7864 39.9393 23.2899C40.606 21.1882 40.4395 19.0613 39.4506 17.0446C38.549 15.2061 37.3569 14.0158 35.5371 13.1367C34.0101 12.3991 32.5358 12.147 30.9094 12.3455ZM17.3445 41.7443C17.2994 41.8618 16.7916 43.0983 16.2159 44.4921L15.1691 47.0262H12.0609C10.2807 47.0262 8.97019 46.9795 8.99352 46.9168C9.01587 46.8566 9.52553 45.6201 10.1259 44.169L11.2177 41.5306H14.3221C17.2284 41.5306 17.4212 41.5443 17.3445 41.7443ZM22.2417 43.0877C24.7799 46.0855 30.4677 51.6057 31.5763 52.1471C32.0916 52.3988 32.3542 52.239 34.4231 50.4152L36.1894 48.8581H41.512C46.6716 48.8581 46.8419 48.8507 47.0787 48.6139C47.4078 48.2847 47.4014 47.6236 47.066 47.32C46.825 47.1017 46.5372 47.0851 42.4113 47.0524L38.0135 47.0173L39.0969 45.8922C39.6928 45.2733 40.8037 44.0388 41.5657 43.1488L42.9512 41.5306H47.8009H52.6507L53.7424 44.169C54.3428 45.6201 54.8514 46.8536 54.8725 46.9099C54.8936 46.9663 53.7546 47.0293 52.3414 47.0498C49.8889 47.0856 49.7598 47.0994 49.5056 47.3538C49.3349 47.5248 49.2435 47.7612 49.2506 48.0135C49.2723 48.7748 49.3361 48.7907 52.6659 48.8581L55.6801 48.9192L56.316 50.4152L56.9518 51.9112H47.4014C37.0011 51.9112 37.4337 51.8823 37.256 52.5905C37.212 52.7656 37.2084 53.011 37.248 53.1357C37.2875 53.2603 39.4176 55.1929 41.9815 57.4302L46.6431 61.498L43.9929 61.5309L41.3428 61.5639L31.9184 53.5449C26.735 49.1345 22.341 45.4682 22.1541 45.3977C21.6926 45.2234 21.2774 45.4266 21.0333 45.9462C20.8913 46.2483 15.0068 60.4465 14.6257 61.4064C14.5814 61.5183 14.112 61.5591 12.8683 61.5591C11.9351 61.5591 11.1715 61.5421 11.1715 61.5214C11.1715 61.5006 11.9317 59.6458 12.8607 57.3997C13.7897 55.1534 14.5883 53.162 14.6353 52.9742C14.7052 52.6953 14.6548 52.5666 14.3602 52.272L13.9994 51.9112H10.458H6.91652L7.55247 50.4152L8.18854 48.9192L12.164 48.8871C16.1057 48.8551 16.1416 48.8525 16.3847 48.5817C16.5194 48.4314 17.2254 46.8522 17.9535 45.0722C18.6815 43.2923 19.3287 41.7673 19.3918 41.6833C19.4605 41.5919 19.7907 41.5306 20.2149 41.5306H20.9233L22.2417 43.0877ZM30.403 54.659L38.4384 61.498L32.9176 61.5298C29.8811 61.5473 24.9604 61.5473 21.9825 61.5298L16.5682 61.498L19.3965 54.6313C20.952 50.8546 22.2568 47.7771 22.2962 47.7923C22.3355 47.8076 25.9836 50.8976 30.403 54.659ZM59.3002 57.6335C60.1689 59.7396 60.8798 61.4845 60.8798 61.511C60.8798 61.5374 58.3103 61.5571 55.17 61.5548L49.4603 61.5507L45.0635 57.6973C42.6453 55.5779 40.6434 53.8208 40.615 53.7927C40.5866 53.7645 44.4236 53.7556 49.142 53.7728L57.7208 53.8042L59.3002 57.6335Z" fill="#F70000"/>
</svg>
