<svg width="67" height="60" viewBox="0 0 67 60" fill="none" xmlns="http://www.w3.org/2000/svg">
<path fill-rule="evenodd" clip-rule="evenodd" d="M26.0066 0.0812222C25.8553 0.111548 25.6247 0.254346 25.494 0.398553C25.267 0.648962 25.2547 1.16411 25.2192 11.9394C25.1988 18.1427 25.2164 23.4085 25.2584 23.6411C25.3005 23.8737 25.4468 24.176 25.5839 24.3129C25.8279 24.5565 26.1541 24.5616 41.5313 24.5616C56.9914 24.5616 57.2334 24.5578 57.4827 24.3089C57.6218 24.1699 57.7677 23.9253 57.8069 23.7651C57.8461 23.605 57.862 18.3366 57.8421 12.0575L57.8063 0.640901L57.5146 0.349546C57.2307 0.0658675 57.1446 0.0570385 54.2951 0.0176281C51.9136 -0.0153845 51.2814 0.0128938 50.907 0.169128C50.4063 0.377952 50.2216 0.778454 50.3643 1.34607C50.4974 1.87593 51.1002 2.04138 52.8967 2.04138H54.4669L53.6414 2.87309L52.8159 3.70481H41.5313H30.2468L29.4237 2.87552L28.6004 2.04624L38.1846 2.01182L47.7688 1.9774L48.0781 1.61836C48.4684 1.16526 48.4684 0.870198 48.0781 0.417106L47.7688 0.0580622L37.0252 0.0420677C31.1163 0.0332387 26.1578 0.0508966 26.0066 0.0812222ZM28.1042 4.24491L28.9086 5.04092V12.2776V19.5143L28.0116 20.403L27.1145 21.2918V12.3704C27.1145 7.46351 27.1562 3.44889 27.2072 3.44889C27.2582 3.44889 27.6619 3.80717 28.1042 4.24491ZM55.9481 12.3704V21.2918L55.051 20.403L54.154 19.5143V12.2848V5.05525L54.9512 4.25207C55.3897 3.81037 55.7934 3.44889 55.8483 3.44889C55.9032 3.44889 55.9481 7.46351 55.9481 12.3704ZM4.54504 4.08957C4.43099 4.15611 4.27401 4.3703 4.19622 4.56544C4.03988 4.95813 0.71582 19.4502 0.71582 19.7393C0.71582 19.8391 0.835383 20.0724 0.981473 20.2578L1.247 20.595H4.9541H8.66107V37.2293V53.8635H8.23612C5.78143 53.8635 3.89904 55.3276 3.55753 57.5026C3.41925 58.3827 3.4832 58.7672 3.81818 59.07C4.05487 59.2841 4.46841 59.3046 9.2831 59.3405C12.1479 59.3619 14.6825 59.3443 14.9155 59.3014C15.5736 59.1802 15.8374 58.8328 15.8374 58.0875C15.8374 56.8803 15.1149 55.4955 14.1089 54.7741C13.3621 54.2386 12.6527 54.0007 11.5166 53.9047L10.5824 53.8259L10.6148 37.2424L10.6474 20.659H11.8648H13.0822L13.1155 26.3128L13.149 31.9666L13.4852 32.2308C13.6703 32.376 13.8976 32.4949 13.9905 32.4949C14.3294 32.4949 14.7874 32.2031 14.9263 31.899C15.0234 31.6859 15.0685 29.8465 15.0685 26.0911V20.595H16.528C18.1881 20.595 18.5725 20.4361 18.5697 19.7512C18.5689 19.5468 17.806 16.0398 16.8745 11.958C15.3626 5.33279 15.1466 4.50568 14.8613 4.24862L14.5416 3.96072L9.64705 3.96456C6.81008 3.96686 4.66525 4.01932 4.54504 4.08957ZM52.2018 9.25029C52.2205 11.2094 52.1895 12.7929 52.133 12.7691C52.0763 12.7451 51.4053 12.0471 50.6419 11.2177C49.8786 10.3882 49.0734 9.61381 48.8527 9.49673C48.2845 9.19526 47.0449 9.20576 46.416 9.51746C46.0848 9.6815 45.0153 10.7645 43.2181 12.7555C40.6414 15.6101 40.5089 15.7355 40.3198 15.4962C39.4568 14.404 37.0825 11.9499 36.6988 11.7535C36.1324 11.4635 35.1067 11.4336 34.494 11.6893C34.2317 11.7987 33.4486 12.5471 32.4799 13.6142L30.8949 15.3602L30.8612 10.6526C30.8428 8.06349 30.8555 5.87251 30.8896 5.78383C30.9389 5.65562 33.1235 5.62939 41.5596 5.65537L52.1677 5.68812L52.2018 9.25029ZM13.5307 5.95325C13.5307 5.99355 14.1651 8.79502 14.9404 12.1788C15.7157 15.5625 16.35 18.4086 16.35 18.5033C16.35 18.6456 15.1753 18.6756 9.6136 18.6756C3.25856 18.6756 2.88077 18.663 2.94203 18.4517C2.97765 18.3285 3.59008 15.6655 4.30284 12.5338C5.01548 9.40204 5.65558 6.62386 5.72517 6.35989L5.85165 5.88006H9.69126C11.8029 5.88006 13.5307 5.91307 13.5307 5.95325ZM39.2768 7.0735C38.9662 7.23716 38.539 7.61642 38.3276 7.91622C37.9804 8.40834 37.9431 8.5574 37.9431 9.45284C37.9431 10.3356 37.9834 10.5023 38.31 10.973C38.7744 11.6422 39.7509 12.151 40.5633 12.1471C41.998 12.1402 43.2599 10.8842 43.2599 9.46282C43.2599 7.47221 41.0431 6.14237 39.2768 7.0735ZM41.1396 8.97953C41.408 9.36225 41.3907 9.66717 41.0828 9.97464C40.5863 10.4703 39.8013 10.1502 39.8013 9.45207C39.8013 8.72759 40.7322 8.39874 41.1396 8.97953ZM48.1137 11.3502C48.2607 11.4734 49.2454 12.5242 50.3017 13.6854L52.2224 15.7966L52.227 17.3641L52.2318 18.9316H47.8238H43.4159L42.6289 18.0452L41.8418 17.1589L44.2925 14.4305C45.6405 12.9298 46.8858 11.5724 47.0599 11.4141C47.4401 11.0683 47.7544 11.0492 48.1137 11.3502ZM38.3795 16.2125L40.8357 18.9316H35.8333H30.8309V18.6173C30.8309 18.3906 31.4442 17.6227 33.0334 15.86C34.9628 13.7198 35.2785 13.4215 35.5796 13.4552C35.8439 13.4846 36.4908 14.1217 38.3795 16.2125ZM53.5773 21.7466L54.4675 22.6423H41.5313H28.5952L29.4853 21.7466L30.3754 20.8509H41.5313H52.6872L53.5773 21.7466ZM24.97 30.7729C22.7189 31.3781 21.0045 33.2258 20.5897 35.4934C20.5133 35.9109 20.4508 37.093 20.4508 38.12V39.9873L19.6131 40.3518C18.532 40.822 17.7249 41.6105 17.2068 42.7026L16.7985 43.5631L16.7616 51.0678L16.7248 58.5724L17.0389 58.9371L17.353 59.3016H32.5609H47.7687L48.0781 58.9426C48.4684 58.4895 48.4684 58.1944 48.0781 57.7414L47.7688 57.3823L36.9291 57.3481L26.0893 57.3141V53.7334V50.1528H41.5313H56.9733V53.7356V57.3183H54.1499C51.0238 57.3183 50.5156 57.4117 50.3643 58.0136C50.2238 58.5724 50.4069 58.982 50.8866 59.1821C51.2504 59.3339 52.5345 59.3656 58.3064 59.3656C62.8256 59.3656 65.4099 59.3188 65.6366 59.2327C66.3432 58.9644 66.3197 59.2337 66.3241 51.3478C66.3279 44.5412 66.3115 43.9801 66.0871 43.2606C65.6505 41.8597 64.6046 40.7694 63.1744 40.2241L62.6118 40.0095L62.6044 37.9476C62.596 35.5601 62.4087 34.62 61.7115 33.4621C61.1882 32.5932 60.2431 31.7018 59.384 31.2671C57.9889 30.5612 58.2787 30.5755 45.4235 30.5755C38.8891 30.5755 33.4454 30.6129 33.3261 30.6587C32.9994 30.7839 32.7552 31.46 32.8996 31.8391C33.1573 32.5161 32.5914 32.4864 45.3204 32.4908C58.5066 32.4954 57.8967 32.4568 59.0877 33.3614C59.552 33.7141 59.852 34.0899 60.177 34.7258L60.6255 35.6034L60.6699 37.8022L60.7142 40.001L59.9434 40.2816C58.9511 40.643 58.0388 41.4629 57.476 42.4994L57.0374 43.3072L56.9955 45.7708L56.9537 48.2345L41.5535 48.202L26.1534 48.1695L26.0865 45.7383C26.0249 43.4981 25.9952 43.2569 25.7077 42.6674C25.2211 41.6693 24.1211 40.6464 23.1567 40.2953L22.3484 40.001L22.3928 37.8022L22.4371 35.6034L22.8856 34.7258C23.2083 34.0945 23.5092 33.7161 23.9577 33.378C24.9579 32.6241 25.5506 32.4949 28.009 32.4949C29.9866 32.4949 30.1822 32.474 30.4932 32.2296C30.9345 31.883 30.9535 31.2471 30.5343 30.8537C30.2518 30.5887 30.1287 30.5759 27.9393 30.584C26.3887 30.5896 25.4225 30.651 24.97 30.7729ZM22.801 42.2514C23.088 42.4098 23.4983 42.7891 23.7129 43.0941L24.103 43.6489L24.1383 50.4836L24.1736 57.3183H21.4151H18.6567L18.6575 50.8246C18.6579 46.6056 18.7062 44.1581 18.7952 43.8375C18.8707 43.5663 19.1666 43.0907 19.4528 42.7807C20.3351 41.825 21.6517 41.6169 22.801 42.2514ZM62.4442 42.0277C63.2221 42.2584 64.0593 43.0895 64.2674 43.8375C64.3565 44.1581 64.4048 46.6056 64.4052 50.8246L64.4059 57.3183H61.6507H58.8955V50.6411C58.8955 44.1169 58.9017 43.951 59.1649 43.4081C59.4657 42.7877 60.0626 42.2758 60.7855 42.0183C61.4124 41.7948 61.6635 41.7963 62.4442 42.0277ZM12.5055 56.0246C12.9047 56.2407 13.5132 56.7974 13.6744 57.0944C13.7891 57.3055 13.5614 57.3183 9.68754 57.3183H5.57895L5.76195 56.9664C6.00107 56.5066 6.61094 56.0662 7.21593 55.9163C7.96868 55.7299 12.1179 55.8148 12.5055 56.0246Z" fill="#F70000"/>
</svg>
