<svg width="25" height="20" viewBox="0 0 25 20" fill="none" xmlns="http://www.w3.org/2000/svg">
<path d="M1.25 4.26284H13.4615C13.7984 5.6238 15.0295 6.63598 16.4931 6.63598C17.9567 6.63598 19.1878 5.6238 19.5246 4.26284H23.75C24.1642 4.26284 24.5 3.92702 24.5 3.51284C24.5 3.09865 24.1642 2.76284 23.75 2.76284H19.5246C19.1878 1.40187 17.9567 0.389648 16.493 0.389648C15.0294 0.389648 13.7983 1.40187 13.4615 2.76284H1.25C0.835812 2.76284 0.5 3.09865 0.5 3.51284C0.5 3.92702 0.835812 4.26284 1.25 4.26284ZM16.4931 1.88965C17.3881 1.88965 18.1163 2.6178 18.1163 3.51279C18.1163 4.40782 17.3881 5.13598 16.4931 5.13598C15.5981 5.13598 14.8699 4.40782 14.8699 3.51279C14.8699 2.6178 15.5981 1.88965 16.4931 1.88965ZM1.25 10.7498H5.47541C5.81225 12.1107 7.04333 13.1229 8.50695 13.1229C9.97058 13.1229 11.2017 12.1107 11.5385 10.7498H23.75C24.1642 10.7498 24.5 10.414 24.5 9.99977C24.5 9.58559 24.1642 9.24977 23.75 9.24977H11.5385C11.2016 7.8888 9.97053 6.87659 8.50691 6.87659C7.04328 6.87659 5.8122 7.8888 5.47536 9.24977H1.25C0.835812 9.24977 0.5 9.58559 0.5 9.99977C0.5 10.414 0.835766 10.7498 1.25 10.7498ZM8.50691 8.37659C9.40194 8.37659 10.1301 9.10474 10.1301 9.99977C10.1301 10.8948 9.40194 11.6229 8.50691 11.6229C7.61187 11.6229 6.88372 10.8948 6.88372 9.99977C6.88372 9.10474 7.61187 8.37659 8.50691 8.37659ZM23.75 15.7367H19.5246C19.1877 14.3757 17.9567 13.3635 16.493 13.3635C15.0294 13.3635 13.7983 14.3757 13.4615 15.7367H1.25C0.835812 15.7367 0.5 16.0725 0.5 16.4867C0.5 16.9009 0.835812 17.2367 1.25 17.2367H13.4615C13.7984 18.5977 15.0295 19.6099 16.4931 19.6099C17.9567 19.6099 19.1878 18.5977 19.5246 17.2367H23.75C24.1642 17.2367 24.5 16.9009 24.5 16.4867C24.5 16.0725 24.1642 15.7367 23.75 15.7367ZM16.4931 18.1099C15.5981 18.1099 14.8699 17.3817 14.8699 16.4867C14.8699 15.5917 15.5981 14.8635 16.4931 14.8635C17.3881 14.8635 18.1163 15.5917 18.1163 16.4867C18.1163 17.3817 17.3881 18.1099 16.4931 18.1099Z" fill="black"/>
</svg>
