<svg width="20" height="20" viewBox="0 0 20 20" fill="none" xmlns="http://www.w3.org/2000/svg">
<path d="M16.1867 0H3.81333C2.80252 0.00176255 1.8336 0.404089 1.11885 1.11885C0.404089 1.8336 0.00176255 2.80252 0 3.81333V16.1867C0.00176255 17.1975 0.404089 18.1664 1.11885 18.8812C1.8336 19.5959 2.80252 19.9982 3.81333 20H16.1867C17.1975 19.9982 18.1664 19.5959 18.8812 18.8812C19.5959 18.1664 19.9982 17.1975 20 16.1867V3.81333C19.9982 2.80252 19.5959 1.8336 18.8812 1.11885C18.1664 0.404089 17.1975 0.00176255 16.1867 0ZM18.6667 16.1867C18.6649 16.8439 18.4031 17.4736 17.9383 17.9383C17.4736 18.4031 16.8439 18.6649 16.1867 18.6667H3.81333C3.15614 18.6649 2.52636 18.4031 2.06165 17.9383C1.59694 17.4736 1.33509 16.8439 1.33333 16.1867V3.81333C1.33509 3.15614 1.59694 2.52636 2.06165 2.06165C2.52636 1.59694 3.15614 1.33509 3.81333 1.33333H16.1867C16.8439 1.33509 17.4736 1.59694 17.9383 2.06165C18.4031 2.52636 18.6649 3.15614 18.6667 3.81333V16.1867Z" fill="#100E2C"/>
<path d="M16.5993 11.3487C16.4049 11.3487 16.2183 11.4259 16.0808 11.5635C15.9433 11.701 15.866 11.8875 15.866 12.082V14.832L5.16668 4.13268H7.91668C8.11117 4.13268 8.2977 4.05542 8.43523 3.91789C8.57275 3.78037 8.65002 3.59384 8.65002 3.39935C8.65002 3.20486 8.57275 3.01833 8.43523 2.8808C8.2977 2.74328 8.11117 2.66602 7.91668 2.66602H3.17202C3.03782 2.66602 2.90911 2.71933 2.81422 2.81422C2.71933 2.90911 2.66602 3.03782 2.66602 3.17202V7.91668C2.66602 8.11117 2.74328 8.2977 2.8808 8.43523C3.01833 8.57275 3.20486 8.65002 3.39935 8.65002C3.59384 8.65002 3.78037 8.57275 3.91789 8.43523C4.05542 8.2977 4.13268 8.11117 4.13268 7.91668V5.16668L14.832 15.866H12.082C11.8875 15.866 11.701 15.9433 11.5635 16.0808C11.4259 16.2183 11.3487 16.4049 11.3487 16.5993C11.3487 16.7938 11.4259 16.9804 11.5635 17.1179C11.701 17.2554 11.8875 17.3327 12.082 17.3327H16.8267C16.9609 17.3327 17.0896 17.2794 17.1845 17.1845C17.2794 17.0896 17.3327 16.9609 17.3327 16.8267V12.082C17.3327 11.8875 17.2554 11.701 17.1179 11.5635C16.9804 11.4259 16.7938 11.3487 16.5993 11.3487Z" fill="#100E2C"/>
</svg>
