<svg width="24" height="20" viewBox="0 0 24 20" fill="none" xmlns="http://www.w3.org/2000/svg">
<path d="M22.8284 10.0311V9.57401C22.8284 8.73199 22.3924 7.99029 21.7348 7.56138V2.57538C21.7348 1.26354 20.6675 0.196289 19.3557 0.196289H4.64433C3.33248 0.196289 2.26519 1.26354 2.26519 2.57538V7.56134C1.60753 7.99024 1.17159 8.73195 1.17159 9.57396V10.031C0.498187 10.2084 0 10.8224 0 11.5508V16.899C0 17.7404 0.664781 18.4294 1.49667 18.4685V19.1014C1.49667 19.489 1.81088 19.8032 2.19844 19.8032C2.586 19.8032 2.9002 19.489 2.9002 19.1014V18.4704H21.0998V19.1014C21.0998 19.489 21.414 19.8032 21.8015 19.8032C22.1891 19.8032 22.5033 19.489 22.5033 19.1014V18.4685C23.3352 18.4293 24 17.7404 24 16.899V11.5508C24 10.8224 23.5018 10.2084 22.8284 10.0311ZM3.66877 2.57538C3.66877 2.03745 4.10639 1.59982 4.64433 1.59982H19.3557C19.8936 1.59982 20.3312 2.03745 20.3312 2.57538V7.17227H19.3955V5.93534C19.3955 5.06955 18.6912 4.36516 17.8253 4.36516H14.0492C13.1834 4.36516 12.479 5.06955 12.479 5.93534V7.17227H11.521V5.93534C11.521 5.06955 10.8166 4.36516 9.95081 4.36516H6.17466C5.30883 4.36516 4.60448 5.06955 4.60448 5.93534V7.17227H3.66877V2.57538ZM17.9919 5.93529V7.00563C17.9919 7.09751 17.9172 7.17223 17.8253 7.17223H14.0492C13.9573 7.17223 13.8826 7.09746 13.8826 7.00563V5.93529C13.8826 5.84341 13.9574 5.7687 14.0492 5.7687H17.8253C17.9172 5.7687 17.9919 5.84341 17.9919 5.93529ZM10.1174 5.93529V7.00563C10.1174 7.09751 10.0426 7.17223 9.95081 7.17223H6.17466C6.08278 7.17223 6.00806 7.09746 6.00806 7.00563V5.93529C6.00806 5.84341 6.08283 5.7687 6.17466 5.7687H9.95081C10.0426 5.7687 10.1174 5.84341 10.1174 5.93529ZM2.57517 9.57396C2.57517 9.02355 3.02297 8.5758 3.57338 8.5758H20.4266C20.977 8.5758 21.4248 9.0236 21.4248 9.57396V9.97934H2.57517V9.57396ZM22.5964 16.899C22.5964 16.9915 22.5211 17.0668 22.4286 17.0668H1.57139C1.47886 17.0668 1.40353 16.9915 1.40353 16.899V11.5508C1.40353 11.4582 1.47881 11.383 1.57139 11.383H22.4286C22.5211 11.383 22.5965 11.4582 22.5965 11.5508V16.899H22.5964Z" fill="#100E2C"/>
</svg>
