<svg width="22" height="22" viewBox="0 0 22 22" fill="none" xmlns="http://www.w3.org/2000/svg">
<path d="M21.1055 5.84041L11.3555 0.590414C11.1343 0.471164 10.8665 0.471164 10.6453 0.590414L0.89525 5.84041C0.6515 5.97091 0.5 6.22441 0.5 6.50041V20.7504C0.5 21.1644 0.83525 21.5004 1.25 21.5004H20.75C21.1647 21.5004 21.5 21.1644 21.5 20.7504V6.50041C21.5 6.22441 21.3485 5.97091 21.1055 5.84041ZM5.75 14.0004H16.25V16.2504H5.75V14.0004ZM16.25 12.5004H5.75V10.2504H16.25V12.5004ZM5.75 20.0004V17.7504H16.25V20.0004H5.75ZM20 20.0004H17.75V9.50041C17.75 9.08641 17.4147 8.75041 17 8.75041H5C4.58525 8.75041 4.25 9.08641 4.25 9.50041V20.0004H2V6.94816L11 2.10241L20 6.94816V20.0004Z" fill="#100E2C"/>
</svg>
