<svg width="24" height="22" viewBox="0 0 24 22" fill="none" xmlns="http://www.w3.org/2000/svg">
<path d="M23.2969 11.7976H22.3875H5.61844V3.89808C5.61844 2.85684 6.46552 2.00977 7.5067 2.00977C8.33011 2.00977 9.03169 2.53973 9.28931 3.27637C8.00316 3.51052 7.02464 4.63823 7.02464 5.991V6.67289C7.02464 7.0612 7.33945 7.37602 7.72777 7.37602H12.4684C12.8567 7.37602 13.1715 7.0612 13.1715 6.67289V5.991C13.1715 4.57927 12.106 3.41245 10.737 3.25083C10.4354 1.74309 9.10177 0.603516 7.5067 0.603516C5.69011 0.603516 4.21219 2.08144 4.21219 3.89808V11.7976H1.6125H0.703125C0.314812 11.7976 0 12.1125 0 12.5008C0 12.8891 0.314812 13.2039 0.703125 13.2039H1.04297L1.70142 16.3067C1.94142 17.4379 2.56847 18.4617 3.46697 19.1895C3.5212 19.2334 3.57633 19.276 3.6322 19.3176L3.04678 20.3455C2.85459 20.6829 2.97234 21.1122 3.3098 21.3044C3.41963 21.367 3.53916 21.3967 3.65709 21.3967C3.90155 21.3967 4.13911 21.269 4.26872 21.0414L4.86727 19.9904C5.43516 20.2046 6.04064 20.3182 6.65344 20.3182H17.3466C17.9594 20.3182 18.5648 20.2046 19.1327 19.9904L19.7313 21.0414C19.8609 21.269 20.0985 21.3967 20.3429 21.3967C20.4609 21.3967 20.5804 21.3669 20.6902 21.3044C21.0277 21.1122 21.1454 20.6829 20.9532 20.3455L20.3678 19.3176C20.4237 19.276 20.4788 19.2334 20.533 19.1895C21.4315 18.4617 22.0586 17.4379 22.2986 16.3067L22.957 13.2039H23.2969C23.6852 13.2039 24 12.8891 24 12.5008C24 12.1125 23.6852 11.7976 23.2969 11.7976ZM11.7651 5.96972H8.43108C8.44247 5.23303 9.04528 4.6372 9.78459 4.6372H10.4115C11.1509 4.6372 11.7537 5.23303 11.7651 5.96972ZM20.923 16.0148C20.5667 17.6936 19.0626 18.912 17.3465 18.912H6.65344C4.93734 18.912 3.43322 17.6936 3.07697 16.0148L2.48048 13.2039H21.5194L20.923 16.0148Z" fill="#100E2C"/>
</svg>
