<svg width="16" height="25" viewBox="0 0 16 25" fill="none" xmlns="http://www.w3.org/2000/svg">
<path d="M9.51074 1.24414V4.41602H13.1328V7.16895H5.79102C5.2773 7.16895 4.78415 7.37308 4.4209 7.73633C4.05769 8.09957 3.85352 8.59276 3.85352 9.10645C3.85359 9.61993 4.05788 10.1124 4.4209 10.4756C4.78415 10.8388 5.2773 11.043 5.79102 11.043H10.0518C11.2952 11.0444 12.488 11.5387 13.3672 12.418C14.2464 13.2972 14.7408 14.49 14.7422 15.7334V15.9238C14.7407 17.167 14.2462 18.3591 13.3672 19.2383C12.5428 20.0626 11.443 20.5488 10.2842 20.6074L10.0518 20.6133H9.51074V23.5957H6.75781V20.6133H2.31543V17.8604H10.0508C10.5644 17.8598 11.0567 17.6551 11.4199 17.292C11.7831 16.9289 11.9876 16.4364 11.9883 15.9229V15.7344L11.9785 15.543C11.9341 15.0996 11.7378 14.6831 11.4199 14.3652C11.1021 14.0474 10.6856 13.8511 10.2422 13.8066L10.0508 13.7969H5.79102C4.54712 13.7969 3.35423 13.3024 2.47461 12.4229C1.59503 11.5433 1.10066 10.3503 1.10059 9.10645C1.10059 7.86244 1.59497 6.66871 2.47461 5.78906C3.35421 4.90969 4.54721 4.41602 5.79102 4.41602H6.75781V1.24414H9.51074Z" fill="#00CE3A" stroke="#00CE3A" stroke-width="1.04935"/>
</svg>
