<svg width="22" height="25" viewBox="0 0 22 25" fill="none" xmlns="http://www.w3.org/2000/svg">
<path d="M13.9047 12.5279C14.1771 12.0805 14.4587 11.618 14.7368 11.141C15.6677 9.54525 15.8386 7.93733 15.2447 6.36185C14.0465 3.18305 10.0412 1.24624 9.11389 0.937217L8.46186 0.719727L7.4442 2.75545L7.9353 3.15665C7.94079 3.16106 8.48628 3.63769 8.52263 4.36025C8.55369 4.97706 8.21554 5.6436 7.51785 6.34149C7.03334 6.82595 6.50157 7.29441 5.93856 7.79032C3.56969 9.87646 0.884766 12.2416 0.884766 16.7159C0.884766 16.7774 0.885343 16.8385 0.886499 16.8992C0.903667 17.8866 1.11573 18.8608 1.5105 19.766C1.90528 20.6711 2.47499 21.4894 3.18691 22.1738C4.61649 23.5642 6.53328 24.3403 8.52754 24.3361H13.0893L12.5262 23.1933C10.2382 18.5497 11.8563 15.8923 13.9047 12.5279Z" fill="#FF1111"/>
<path d="M21.6865 16.6649C21.6733 16.6125 21.6595 16.5599 21.6452 16.5071C21.0733 14.4104 17.9078 11.7144 17.5487 11.4139L16.8277 10.8105L16.3549 11.6233C15.2774 13.4757 14.3528 15.1653 13.9497 17.0822C13.4901 19.2682 13.7995 21.4899 14.8957 23.8743L15.1078 24.3358H15.6466C16.5956 24.3385 17.5325 24.1234 18.3852 23.7069C19.238 23.2904 19.9837 22.6837 20.565 21.9336C21.1427 21.1998 21.5443 20.3432 21.7387 19.4297C21.9332 18.5163 21.9153 17.5704 21.6865 16.6649Z" fill="#FF1111"/>
</svg>
