<svg width="100" height="101" viewBox="0 0 100 101" fill="none" xmlns="http://www.w3.org/2000/svg">
<g opacity="0.65">
<path d="M8.33301 51.5703H32.4996C38.8746 51.5703 43.2497 56.4037 43.2497 62.3204V75.7372C43.2497 81.6538 38.8746 86.487 32.4996 86.487H19.0831C13.1664 86.487 8.33301 81.6538 8.33301 75.7372V51.5703" stroke="#F70000" stroke-width="1.5" stroke-linecap="round" stroke-linejoin="round"/>
<path d="M8.33301 51.5703C8.33301 26.3619 13.0415 22.1955 27.2081 13.7788" stroke="#F70000" stroke-width="1.5" stroke-linecap="round" stroke-linejoin="round"/>
<path d="M56.791 51.5703H80.9576C87.3326 51.5703 91.7077 56.4037 91.7077 62.3204V75.7372C91.7077 81.6538 87.3326 86.487 80.9576 86.487H67.5411C61.6244 86.487 56.791 81.6538 56.791 75.7372V51.5703" stroke="#F70000" stroke-width="1.5" stroke-linecap="round" stroke-linejoin="round"/>
<path d="M56.791 51.5703C56.791 26.3619 61.4992 22.1955 75.6659 13.7788" stroke="#F70000" stroke-width="1.5" stroke-linecap="round" stroke-linejoin="round"/>
</g>
</svg>
