<svg width="100" height="103" viewBox="0 0 100 103" fill="none" xmlns="http://www.w3.org/2000/svg">
<g opacity="0.65">
<path d="M91.6667 49.6343H67.5C61.125 49.6343 56.75 44.7032 56.75 38.667V24.9792C56.75 18.943 61.125 14.0122 67.5 14.0122H80.9167C86.8333 14.0122 91.6667 18.943 91.6667 24.9792V49.6343Z" stroke="#F70000" stroke-width="1.5" stroke-linecap="round" stroke-linejoin="round"/>
<path d="M91.667 49.6343C91.667 75.3519 86.9587 79.6025 72.792 88.1892" stroke="#F70000" stroke-width="1.5" stroke-linecap="round" stroke-linejoin="round"/>
<path d="M43.2087 49.6343H19.042C12.667 49.6343 8.29199 44.7032 8.29199 38.667V24.9792C8.29199 18.943 12.667 14.0122 19.042 14.0122H32.5003C38.417 14.0122 43.2503 18.943 43.2503 24.9792V49.6343" stroke="#F70000" stroke-width="1.5" stroke-linecap="round" stroke-linejoin="round"/>
<path d="M43.209 49.6343C43.209 75.3519 38.5007 79.6025 24.334 88.1892" stroke="#F70000" stroke-width="1.5" stroke-linecap="round" stroke-linejoin="round"/>
</g>
</svg>
